<svg width="100" height="100" viewBox="0 0 100 100" fill="none" xmlns="http://www.w3.org/2000/svg">
<g clip-path="url(#clip0_1_912)">
<path d="M98.505 62.0959C91.8261 88.8817 64.6918 105.182 37.8997 98.5036C11.1201 91.8255 -5.18328 64.6944 1.49716 37.9101C8.17291 11.1212 35.3057 -5.18186 62.0899 1.49624C88.8804 8.17433 105.182 35.3086 98.5034 62.0959H98.505Z" fill="#F5B300"/>
<path d="M32.804 22.9943C34.6402 23.4951 36.4764 23.8289 38.3126 24.3297C40.1488 24.8305 41.985 25.1643 43.8212 25.6651C44.322 25.832 44.4889 25.6651 44.6558 25.1643C45.3235 22.3266 45.9912 19.6557 46.659 16.818C46.8259 16.3172 46.9928 16.1502 47.4936 16.3172C49.1629 16.818 50.6652 17.1518 52.3345 17.4857C52.8353 17.6526 52.8353 17.8195 52.6683 18.1534C52.0006 20.8242 51.3329 23.662 50.6652 26.3328C50.6652 26.4998 50.6652 26.6667 50.4983 27.0005C51.8337 27.3344 53.3361 27.6682 54.6715 28.0021C54.8384 28.0021 55.0053 27.6682 55.1723 27.5013C55.673 25.3313 56.1738 23.3281 56.8415 21.1581L57.3423 19.1549C57.3423 18.8211 57.5092 18.6542 57.8431 18.8211C59.5124 19.3219 61.1816 19.6557 63.0178 20.1565C63.1848 20.1565 63.1848 20.3234 63.3517 20.3234C62.8509 22.4935 62.3501 24.4966 61.8494 26.4998C61.6824 27.3344 61.5155 28.169 61.1816 29.0037C61.0147 29.5044 61.1816 29.6714 61.6824 29.8383L67.191 32.3422C68.8603 33.3438 70.3627 34.6792 71.5311 36.3485C73.0335 38.8524 73.2004 41.5232 72.5327 44.1941C72.0319 46.0303 71.3642 47.6995 70.0288 49.035C69.0272 50.0365 67.6918 50.7042 66.3564 51.205C66.1895 51.205 66.0225 51.3719 65.6887 51.3719C66.3564 51.8727 67.0241 52.2066 67.6918 52.7074C69.6949 54.2097 71.0304 56.0459 71.6981 58.3829C72.0319 60.2191 71.865 62.2222 71.3642 64.0584C70.6965 66.3954 69.8619 68.3985 68.3595 70.2348C66.5233 72.4048 64.1863 73.5733 61.5155 73.9072C58.01 74.4079 54.6715 74.0741 51.3329 73.5733C50.8321 73.4064 50.4983 73.5733 50.3313 74.0741C49.6636 76.7449 48.9959 79.5827 48.3282 82.2535C48.1613 82.9212 48.1613 83.0882 47.3267 82.7543C45.8243 82.4205 44.155 81.9197 42.6527 81.5858C42.1519 81.4189 42.1519 81.252 42.3188 80.9181C42.9865 78.0803 43.6543 75.2426 44.4889 72.5717C44.4889 72.2379 44.6558 72.071 44.322 71.904C42.9865 71.5702 41.6511 71.2363 40.1488 70.9025C39.8149 72.4048 39.3141 73.9072 38.9803 75.4095C38.6464 76.9119 38.1456 78.4142 37.8118 79.9165C37.6449 80.2504 37.6449 80.4173 37.1441 80.2504C35.4748 79.7496 33.8055 79.4158 32.1363 79.0819C31.6355 78.915 31.6355 78.7481 31.8024 78.4142C32.4701 75.5764 33.1378 72.7387 33.9725 70.0678C33.9725 69.9009 34.1394 69.734 34.1394 69.4001C30.3001 68.3985 26.4607 67.397 22.4545 66.3954C22.7883 65.7277 22.9552 65.2269 23.2891 64.5592C23.9568 63.0569 24.6245 61.5545 25.1253 60.2191C25.2922 59.7183 25.4592 59.7183 25.9599 59.7183C27.1284 60.0522 28.4639 60.386 29.6323 60.553C30.9678 60.8868 31.9693 60.2191 32.1363 59.0506C34.3063 50.5373 36.4764 42.024 38.4795 33.3438C38.8134 32.0084 37.9787 30.506 36.4764 30.0052C34.974 29.5044 33.4717 29.1706 32.1363 28.8367C31.8024 28.8367 31.6355 28.6698 31.8024 28.336C32.3032 26.4998 32.804 24.4966 33.3048 22.6604C32.637 23.1612 32.637 23.1612 32.804 22.9943ZM41.3173 64.2254C41.4842 64.2254 41.6511 64.3923 41.6511 64.3923C44.322 65.06 47.1597 65.8946 49.9975 66.0616C52.0006 66.2285 53.8368 66.2285 55.673 65.5608C58.8447 64.5592 60.1801 60.386 58.3439 57.7152C57.5092 56.3798 56.1738 55.5451 54.8384 54.7105C51.8337 53.0412 48.3282 52.3735 44.9897 51.7058C44.4889 51.5389 44.4889 51.7058 44.322 52.2066C43.9881 53.8759 43.4873 55.3782 43.1535 57.0475C42.4858 59.3845 41.985 61.7215 41.3173 64.2254ZM55.3392 47.1988C55.673 47.1988 56.5077 47.0318 57.1754 46.8649C60.347 46.1972 62.0163 42.5248 60.347 39.687C59.5124 38.1847 58.01 37.1831 56.5077 36.5154C54.1707 35.5138 51.8337 35.0131 49.3298 34.3453C48.829 34.1784 48.6621 34.3453 48.4952 34.8461C47.6605 38.3516 46.8259 41.6902 45.8243 45.1956C45.6574 45.5295 45.8243 45.6964 46.1582 45.8633C46.8259 46.0303 47.3267 46.1972 47.9944 46.3641C50.4983 46.698 52.6683 47.1988 55.3392 47.1988Z" fill="white"/>
</g>
<defs>
<clipPath id="clip0_1_912">
<rect width="100" height="100" rx="50" fill="white"/>
</clipPath>
</defs>
</svg>