<svg width="100" height="100" viewBox="0 0 100 100" fill="none" xmlns="http://www.w3.org/2000/svg">
<g clip-path="url(#clip0_104_1367)">
<path d="M95.0196 4.16666L56 33.1471L63.2157 16.049L95.0196 4.16666Z" fill="#E2761B" stroke="#E2761B" stroke-width="0.1875" stroke-linecap="round" stroke-linejoin="round"/>
<path d="M4.94122 4.16666L43.6471 33.4216L36.7844 16.049L4.94122 4.16666Z" fill="#E4761B" stroke="#E4761B" stroke-width="0.1875" stroke-linecap="round" stroke-linejoin="round"/>
<path d="M80.9804 71.3431L70.5883 87.2647L92.8236 93.3823L99.2157 71.6961L80.9804 71.3431Z" fill="#E4761B" stroke="#E4761B" stroke-width="0.1875" stroke-linecap="round" stroke-linejoin="round"/>
<path d="M0.823547 71.6961L7.17649 93.3823L29.4118 87.2647L19.0196 71.3431L0.823547 71.6961Z" fill="#E4761B" stroke="#E4761B" stroke-width="0.1875" stroke-linecap="round" stroke-linejoin="round"/>
<path d="M28.1569 44.4412L21.9608 53.8137L44.0393 54.7941L43.2549 31.0686L28.1569 44.4412Z" fill="#E4761B" stroke="#E4761B" stroke-width="0.1875" stroke-linecap="round" stroke-linejoin="round"/>
<path d="M71.804 44.4412L56.5099 30.7941L56.0001 54.7941L78.0393 53.8137L71.804 44.4412Z" fill="#E4761B" stroke="#E4761B" stroke-width="0.1875" stroke-linecap="round" stroke-linejoin="round"/>
<path d="M29.4118 87.2647L42.6667 80.7941L31.2157 71.8529L29.4118 87.2647Z" fill="#E4761B" stroke="#E4761B" stroke-width="0.1875" stroke-linecap="round" stroke-linejoin="round"/>
<path d="M57.2941 80.7941L70.5882 87.2647L68.7451 71.8529L57.2941 80.7941Z" fill="#E4761B" stroke="#E4761B" stroke-width="0.1875" stroke-linecap="round" stroke-linejoin="round"/>
<path d="M70.5882 87.2647L57.2941 80.7941L58.3529 89.4608L58.2352 93.1079L70.5882 87.2647Z" fill="#D7C1B3" stroke="#D7C1B3" stroke-width="0.1875" stroke-linecap="round" stroke-linejoin="round"/>
<path d="M29.4117 87.2647L41.7647 93.1079L41.6863 89.4608L42.6666 80.7941L29.4117 87.2647Z" fill="#D7C1B3" stroke="#D7C1B3" stroke-width="0.1875" stroke-linecap="round" stroke-linejoin="round"/>
<path d="M41.9608 66.1275L30.902 62.8725L38.7059 59.3039L41.9608 66.1275Z" fill="#233447" stroke="#233447" stroke-width="0.1875" stroke-linecap="round" stroke-linejoin="round"/>
<path d="M58 66.1275L61.2549 59.3039L69.098 62.8725L58 66.1275Z" fill="#233447" stroke="#233447" stroke-width="0.1875" stroke-linecap="round" stroke-linejoin="round"/>
<path d="M29.4117 87.2647L31.2941 71.3431L19.0196 71.6961L29.4117 87.2647Z" fill="#CD6116" stroke="#CD6116" stroke-width="0.1875" stroke-linecap="round" stroke-linejoin="round"/>
<path d="M68.7059 71.3431L70.5882 87.2647L80.9804 71.6961L68.7059 71.3431Z" fill="#CD6116" stroke="#CD6116" stroke-width="0.1875" stroke-linecap="round" stroke-linejoin="round"/>
<path d="M78.0392 53.8137L56 54.7941L58.0392 66.1274L61.2941 59.3039L69.1373 62.8725L78.0392 53.8137Z" fill="#CD6116" stroke="#CD6116" stroke-width="0.1875" stroke-linecap="round" stroke-linejoin="round"/>
<path d="M30.9019 62.8725L38.7451 59.3039L41.9608 66.1274L44.0392 54.7941L21.9608 53.8137L30.9019 62.8725Z" fill="#CD6116" stroke="#CD6116" stroke-width="0.1875" stroke-linecap="round" stroke-linejoin="round"/>
<path d="M21.9608 53.8137L31.2157 71.8529L30.9019 62.8725L21.9608 53.8137Z" fill="#E4751F" stroke="#E4751F" stroke-width="0.1875" stroke-linecap="round" stroke-linejoin="round"/>
<path d="M69.1372 62.8725L68.7451 71.8529L78.0392 53.8137L69.1372 62.8725Z" fill="#E4751F" stroke="#E4751F" stroke-width="0.1875" stroke-linecap="round" stroke-linejoin="round"/>
<path d="M44.0392 54.7941L41.9608 66.1275L44.549 79.5L45.1372 61.8922L44.0392 54.7941Z" fill="#E4751F" stroke="#E4751F" stroke-width="0.1875" stroke-linecap="round" stroke-linejoin="round"/>
<path d="M56 54.7941L54.9412 61.853L55.4118 79.5L58.0392 66.1275L56 54.7941Z" fill="#E4751F" stroke="#E4751F" stroke-width="0.1875" stroke-linecap="round" stroke-linejoin="round"/>
<path d="M58.0392 66.1275L55.4117 79.5L57.2941 80.7941L68.7451 71.853L69.1372 62.8726L58.0392 66.1275Z" fill="#F6851B" stroke="#F6851B" stroke-width="0.1875" stroke-linecap="round" stroke-linejoin="round"/>
<path d="M30.902 62.8726L31.2157 71.853L42.6667 80.7941L44.549 79.5L41.9608 66.1275L30.902 62.8726Z" fill="#F6851B" stroke="#F6851B" stroke-width="0.1875" stroke-linecap="round" stroke-linejoin="round"/>
<path d="M58.2353 93.1078L58.3529 89.4608L57.3725 88.598H42.5882L41.6863 89.4608L41.7647 93.1078L29.4117 87.2647L33.7255 90.7941L42.4706 96.8726H57.4902L66.2745 90.7941L70.5882 87.2647L58.2353 93.1078Z" fill="#C0AD9E" stroke="#C0AD9E" stroke-width="0.1875" stroke-linecap="round" stroke-linejoin="round"/>
<path d="M57.2941 80.7941L55.4118 79.5H44.549L42.6667 80.7941L41.6863 89.4608L42.5882 88.598H57.3726L58.3529 89.4608L57.2941 80.7941Z" fill="#161616" stroke="#161616" stroke-width="0.1875" stroke-linecap="round" stroke-linejoin="round"/>
<path d="M96.6667 35.0294L100 19.0294L95.0196 4.16666L57.2941 32.1667L71.8039 44.4412L92.3137 50.4412L96.8628 45.147L94.902 43.7353L98.0392 40.8725L95.6079 38.9902L98.7451 36.598L96.6667 35.0294Z" fill="#763D16" stroke="#763D16" stroke-width="0.1875" stroke-linecap="round" stroke-linejoin="round"/>
<path d="M0 19.0294L3.33333 35.0294L1.21569 36.598L4.35294 38.9902L1.96078 40.8725L5.09804 43.7353L3.13725 45.147L7.64706 50.4412L28.1569 44.4412L42.6667 32.1667L4.94118 4.16666L0 19.0294Z" fill="#763D16" stroke="#763D16" stroke-width="0.1875" stroke-linecap="round" stroke-linejoin="round"/>
<path d="M92.3137 50.4412L71.8039 44.4412L78.0392 53.8137L68.7451 71.853L80.9804 71.6961H99.2157L92.3137 50.4412Z" fill="#F6851B" stroke="#F6851B" stroke-width="0.1875" stroke-linecap="round" stroke-linejoin="round"/>
<path d="M28.1569 44.4412L7.64708 50.4412L0.823547 71.6961H19.0196L31.2157 71.853L21.9608 53.8137L28.1569 44.4412Z" fill="#F6851B" stroke="#F6851B" stroke-width="0.1875" stroke-linecap="round" stroke-linejoin="round"/>
<path d="M56 54.7941L57.2941 32.1667L63.2549 16.049H36.7843L42.6667 32.1667L44.0392 54.7941L44.5098 61.9314L44.549 79.5H55.4118L55.4902 61.9314L56 54.7941Z" fill="#F6851B" stroke="#F6851B" stroke-width="0.1875" stroke-linecap="round" stroke-linejoin="round"/>
</g>
<defs>
<clipPath id="clip0_104_1367">
<rect width="100" height="100" fill="white"/>
</clipPath>
</defs>
</svg>