<svg width="100" height="100" viewBox="0 0 100 100" fill="none" xmlns="http://www.w3.org/2000/svg">
<g clip-path="url(#clip0_127_54)">
<path d="M99.9994 49.9997C99.9994 77.6141 77.6141 100 50 100C22.3856 100 0 77.6141 0 49.9997C0 22.3856 22.3856 7.62939e-06 50 7.62939e-06C77.6138 7.62939e-06 99.9994 22.3856 99.9994 49.9997" fill="#7536C6"/>
<path d="M66.9732 38.1432C65.7432 37.4266 64.1466 37.4266 62.7932 38.1432L53.1966 43.6565L46.68 47.2498L37.0834 52.7598C35.8534 53.4798 34.2567 53.4798 32.9034 52.7598L25.2768 48.4465C24.0468 47.7298 23.1868 46.4132 23.1868 44.9732V36.4666C23.1868 35.0299 23.9235 33.7133 25.2768 32.9933L32.7768 28.7999C34.0101 28.08 35.6101 28.08 36.9634 28.7999L44.4634 32.9933C45.6967 33.7133 46.5567 35.0299 46.5567 36.4666V41.9799L53.0733 38.2632V32.7533C53.0805 32.0376 52.8889 31.334 52.5199 30.7208C52.151 30.1075 51.619 29.6088 50.9833 29.2799L37.0834 21.3733C35.8534 20.6533 34.2567 20.6533 32.9034 21.3733L18.7568 29.2799C18.1212 29.6088 17.5892 30.1075 17.2202 30.7208C16.8512 31.334 16.6597 32.0376 16.6669 32.7533V48.6865C16.6669 50.1265 17.4035 51.4431 18.7568 52.1631L32.9034 60.0698C34.1334 60.7864 35.7334 60.7864 37.0834 60.0698L46.68 54.6765L53.1966 50.9631L62.7932 45.5732C64.0232 44.8532 65.6199 44.8532 66.9732 45.5732L74.4765 49.7665C75.7098 50.4832 76.5665 51.7998 76.5665 53.2398V61.7464C76.5665 63.1831 75.8332 64.4997 74.4765 65.2197L66.9766 69.533C65.7432 70.253 64.1432 70.253 62.7932 69.533L55.29 65.3397C54.0566 64.6197 53.1966 63.3031 53.1966 61.8664V56.3531L46.68 60.0698V65.5797C46.68 67.0164 47.4167 68.3364 48.77 69.053L62.9166 76.9597C64.1466 77.6797 65.7432 77.6797 67.0966 76.9597L81.2431 69.053C82.4731 68.3364 83.3331 67.0197 83.3331 65.5797V49.6465C83.3403 48.9308 83.1488 48.2272 82.7798 47.614C82.4108 47.0008 81.8788 46.502 81.2431 46.1732L66.9766 38.1432H66.9732Z" fill="#7536C6"/>
<path d="M66.9732 38.1432C65.7432 37.4266 64.1466 37.4266 62.7932 38.1432L53.1966 43.6565L46.68 47.2498L37.0834 52.7598C35.8534 53.4798 34.2567 53.4798 32.9034 52.7598L25.2768 48.4465C24.0468 47.7298 23.1868 46.4132 23.1868 44.9732V36.4666C23.1868 35.0299 23.9235 33.7133 25.2768 32.9933L32.7768 28.7999C34.0101 28.08 35.6101 28.08 36.9634 28.7999L44.4634 32.9933C45.6967 33.7133 46.5567 35.0299 46.5567 36.4666V41.9799L53.0733 38.2632V32.7533C53.0805 32.0376 52.8889 31.334 52.5199 30.7208C52.151 30.1075 51.619 29.6088 50.9833 29.2799L37.0834 21.3733C35.8534 20.6533 34.2567 20.6533 32.9034 21.3733L18.7568 29.2799C18.1212 29.6088 17.5892 30.1075 17.2202 30.7208C16.8512 31.334 16.6597 32.0376 16.6669 32.7533V48.6865C16.6669 50.1265 17.4035 51.4431 18.7568 52.1631L32.9034 60.0698C34.1334 60.7864 35.7334 60.7864 37.0834 60.0698L46.68 54.6765L53.1966 50.9631L62.7932 45.5732C64.0232 44.8532 65.6199 44.8532 66.9732 45.5732L74.4765 49.7665C75.7098 50.4832 76.5665 51.7998 76.5665 53.2398V61.7464C76.5665 63.1831 75.8332 64.4997 74.4765 65.2197L66.9766 69.533C65.7432 70.253 64.1432 70.253 62.7932 69.533L55.29 65.3397C54.0566 64.6197 53.1966 63.3031 53.1966 61.8664V56.3531L46.68 60.0698V65.5797C46.68 67.0164 47.4167 68.3364 48.77 69.053L62.9166 76.9597C64.1466 77.6797 65.7432 77.6797 67.0966 76.9597L81.2431 69.053C82.4731 68.3364 83.3331 67.0197 83.3331 65.5797V49.6465C83.3403 48.9308 83.1488 48.2272 82.7798 47.614C82.4108 47.0008 81.8788 46.502 81.2431 46.1732L66.9766 38.1432H66.9732Z" fill="white"/>
</g>
<defs>
<clipPath id="clip0_127_54">
<rect width="100" height="100" rx="50" fill="white"/>
</clipPath>
</defs>
</svg>