<?xml version="1.0" encoding="utf-8"?>
<svg version="1.1" xmlns="http://www.w3.org/2000/svg" width="1080" height="1080">
  <path d="M0 0 C0 163.35 0 326.7 0 495 C-163.35 495 -326.7 495 -495 495 C-495 473.0825215 -494.89587278 452.5166129 -492 431 C-491.85546387 429.89366211 -491.71092773 428.78732422 -491.56201172 427.64746094 C-489.36961791 411.18144234 -486.00054815 395.1140461 -482 379 C-481.72784668 377.88447754 -481.45569336 376.76895508 -481.17529297 375.61962891 C-458.96827373 284.90960117 -410.67132787 205.01836446 -345.25241089 139.07717896 C-343.85835183 137.67124248 -342.4682904 136.26134563 -341.07836914 134.85131836 C-335.79206477 129.55828168 -330.34523197 124.66641595 -324.48388672 120.01635742 C-321.99629953 117.99699605 -319.65064428 115.87708671 -317.3125 113.6875 C-310.61112043 107.59918039 -303.31523529 102.31817774 -296 97 C-295.33081543 96.51128418 -294.66163086 96.02256836 -293.97216797 95.51904297 C-275.46737228 82.05569003 -256.04660684 70.02242298 -236 59 C-235.15646973 58.5349707 -234.31293945 58.06994141 -233.44384766 57.59082031 C-181.37743352 29.08941989 -123.24311173 10.88180167 -64.42626953 3.43798828 C-61.09181944 3.0117375 -57.76323077 2.55197484 -54.43359375 2.08984375 C-35.89332324 -0.28428261 -19.11990872 0 0 0 Z " fill="#75AADB" transform="translate(512,17)"/>
  <path d="M0 0 C35.44373654 0 35.44373654 0 46.125 1 C46.78982391 1.05946808 47.45464783 1.11893616 48.13961792 1.1802063 C78.26159196 3.93902174 109.19104958 9.73949206 138 19 C140.04873835 19.6287212 142.09823765 20.25496735 144.1484375 20.87890625 C170.74181527 29.05829315 197.33505768 38.83807461 221.95410156 51.92626953 C224.3377297 53.17724764 226.74208344 54.38317038 229.1484375 55.58984375 C256.42637476 69.3790291 282.04951077 86.02666962 306 105 C306.83144531 105.6496875 307.66289063 106.299375 308.51953125 106.96875 C324.34695096 119.44658654 339.10520938 133.03480323 353.375 147.25 C354.64174561 148.50973633 354.64174561 148.50973633 355.93408203 149.79492188 C360.28973622 154.16179531 364.4959633 158.59748289 368.51611328 163.27539062 C370.37753715 165.43878289 372.31370441 167.52861698 374.25 169.625 C379.83323411 175.82859345 384.93466845 182.37444129 390 189 C390.59151855 189.77230957 391.18303711 190.54461914 391.79248047 191.34033203 C399.92038244 201.98236428 407.80673847 212.7028732 415 224 C415.48645996 224.75796875 415.97291992 225.5159375 416.47412109 226.296875 C436.58235363 257.73906618 453.03836582 291.03307175 466 326 C466.31936523 326.85577637 466.63873047 327.71155273 466.96777344 328.59326172 C470.56550397 338.29175579 473.62302395 348.11070172 476.44287109 358.06103516 C476.93954291 359.78959236 477.46214583 361.51065061 477.98828125 363.23046875 C481.7316063 375.63119576 484.33135231 388.33346154 487 401 C487.16387207 401.77150391 487.32774414 402.54300781 487.49658203 403.33789062 C489.67367588 413.81467283 490.85434107 424.44689925 492.125 435.0625 C492.21162903 435.77971222 492.29825806 436.49692444 492.38751221 437.23587036 C494.70517932 456.5850972 495 475.35749717 495 495 C331.65 495 168.3 495 0 495 C0 331.65 0 168.3 0 0 Z " fill="#75AADB" transform="translate(568,17)"/>
  <path d="M0 0 C163.35 0 326.7 0 495 0 C495 163.35 495 326.7 495 495 C456.80952381 495 456.80952381 495 441 493 C440.32126831 492.91470032 439.64253662 492.82940063 438.9432373 492.74151611 C391.59731905 486.74056547 344.67416959 475.63274858 301 456 C300.00500488 455.55865723 299.01000977 455.11731445 297.98486328 454.66259766 C248.66949252 432.71037173 202.24348995 404.44289143 162.66796875 367.484375 C160.27370772 365.25487278 157.83552395 363.09306937 155.375 360.9375 C150.35864533 356.43501581 145.58616925 351.69524093 140.8125 346.9375 C139.67143799 345.80332642 139.67143799 345.80332642 138.50732422 344.64624023 C134.34783396 340.47540509 130.35574391 336.21708146 126.51245117 331.75317383 C124.63947811 329.58209723 122.69537293 327.48121085 120.75 325.375 C115.16676589 319.17140655 110.06533155 312.62555871 105 306 C104.40848145 305.22769043 103.81696289 304.45538086 103.20751953 303.65966797 C95.07961756 293.01763572 87.19326153 282.2971268 80 271 C79.51354004 270.24203125 79.02708008 269.4840625 78.52587891 268.703125 C52.35827571 227.78621293 33.78374084 184.09620993 19 138 C18.71398926 137.12311523 18.42797852 136.24623047 18.13330078 135.34277344 C4.03514094 91.95356846 0 45.1978367 0 0 Z " fill="#75AADB" transform="translate(17,568)"/>
  <path d="M0 0 C163.35 0 326.7 0 495 0 C495 31.12474815 495 31.12474815 493.9375 43.625 C493.87542358 44.38127686 493.81334717 45.13755371 493.74938965 45.91674805 C487.16310809 124.13840883 459.68208124 202.28433879 417 268 C416.61118652 268.60328125 416.22237305 269.2065625 415.82177734 269.828125 C401.58387749 291.86375075 385.43488119 313.12565646 367.51953125 332.296875 C365.27740227 334.70238393 363.10384235 337.15158388 360.9375 339.625 C356.43501581 344.64135467 351.69524093 349.41383075 346.9375 354.1875 C346.18138428 354.94820801 345.42526855 355.70891602 344.64624023 356.49267578 C340.47540509 360.65216604 336.21708146 364.64425609 331.75317383 368.48754883 C329.58209723 370.36052189 327.48121085 372.30462707 325.375 374.25 C319.85628397 379.22783115 314.05304913 383.80378591 308.16333008 388.33007812 C306.50284653 389.61184175 304.85055873 390.90422847 303.2019043 392.20117188 C294.86609767 398.73159799 286.25544495 404.76537255 277.4375 410.625 C276.72346008 411.10011017 276.00942017 411.57522034 275.27374268 412.06472778 C226.90281385 444.15691426 172.66131096 468.85177882 116 482 C114.28645285 482.41794629 112.57291121 482.83591514 110.859375 483.25390625 C74.23256049 491.91969498 37.61853509 495 0 495 C0 331.65 0 168.3 0 0 Z " fill="#75AADB" transform="translate(568,568)"/>
</svg>